<svg xmlns="http://www.w3.org/2000/svg" width="28" height="40" fill="none">
  <g fill-rule="evenodd" clip-rule="evenodd">
    <path fill="url(#a)" d="M815.039 94.644c9.719 12.065 14.675 28.346 24.587 60.909l216.544 711.348c-80.063-41.533-167.098-71.488-258.889-87.649L656.29 302.798a18.351 18.351 0 0 0-35.21.055L481.795 779.011c-92.216 16.089-179.649 46.098-260.054 87.782l217.606-711.405h.001c9.943-32.506 14.914-48.759 24.634-60.803A79.994 79.994 0 0 1 496.4 70.6c14.36-5.772 31.356-5.772 65.349-5.772h155.425c34.038 0 51.056 0 65.429 5.784a79.997 79.997 0 0 1 32.436 24.032z" style="fill:url(#a)" transform="matrix(.03356 0 0 .03362 -7.44 -2.18)"/>
    <path fill="#ff5d01" d="M20.778 28.1c-1.198 1.026-3.589 1.726-6.343 1.726-3.38 0-6.213-1.055-6.965-2.472-.268.812-.329 1.742-.329 2.336 0 0-.177 2.917 1.848 4.946 0-1.053.853-1.907 1.905-1.907 1.802 0 1.8 1.575 1.798 2.853v.114A4.66 4.66 0 0 0 15.56 40a3.916 3.916 0 0 1-.392-1.714c0-1.85 1.084-2.54 2.344-3.34 1.003-.637 2.117-1.345 2.884-2.765.401-.74.629-1.59.629-2.49 0-.555-.086-1.09-.246-1.591z"/>
    <path fill="url(#b)" d="M840.951 900.754c-35.698 30.525-106.949 51.343-189.022 51.343-100.732 0-185.162-31.36-207.566-73.536-8.009 24.171-9.805 51.835-9.805 69.507 0 0-5.277 86.772 55.078 147.132 0-31.34 25.406-56.74 56.745-56.74 53.716 0 53.655 46.86 53.606 84.88l-.003 3.39c0 57.71 35.271 107.18 85.432 128.04-7.492-15.41-11.695-32.72-11.695-51 0-55.04 32.313-75.54 69.867-99.36 29.881-18.95 63.08-40 85.96-82.24 11.938-22.04 18.717-47.277 18.717-74.102 0-16.495-2.563-32.392-7.314-47.314z" style="fill:url(#b)" transform="matrix(.03356 0 0 .03362 -7.44 -2.18)"/>
  </g>
  <defs>
    <linearGradient id="a" x1="882.997" x2="638.955" y1="27.113" y2="866.902" gradientUnits="userSpaceOnUse">
      <stop stop-color="#000014"/>
      <stop offset="1" stop-color="#150426"/>
    </linearGradient>
    <linearGradient id="b" x1="1001.68" x2="790.326" y1="652.45" y2="1094.91" gradientUnits="userSpaceOnUse">
      <stop stop-color="#FF1639"/>
      <stop offset="1" stop-color="#FF1639" stop-opacity="0"/>
    </linearGradient>
  </defs>
</svg>
